<?xml version="1.0" standalone="no"?><!DOCTYPE svg PUBLIC "-//W3C//DTD SVG 1.1//EN" "http://www.w3.org/Graphics/SVG/1.1/DTD/svg11.dtd"><svg t="1552477716467" class="icon" style="" viewBox="0 0 1024 1024" version="1.1" xmlns="http://www.w3.org/2000/svg" p-id="1177" xmlns:xlink="http://www.w3.org/1999/xlink" width="200" height="200"><defs><style type="text/css"></style></defs><path d="M374.7 166c0-38.7 67.4-53 137.3-53s144.2 12.6 144.2 53c0 34.1-44.6 253.8-44.6 253.8H419.3c0-0.1-44.6-214-44.6-253.8z" fill="#03889D" p-id="1178"></path><path d="M658.1 329c2.8 1.3 5.6 2.7 8.4 4l0.1-0.2c-2.9-1.2-5.7-2.5-8.5-3.8zM543.4 301.7c39.4 2 65.7 7.8 88.3 16.1 2.5-13.1 5-26.5 7.4-39.8-24.5-8.3-53.5-14.3-95-16.2l-0.7 39.9z" fill="#D9E56A" p-id="1179"></path><path d="M603 330l32.7-194.9c-11.8-7.2-27.9-12.3-46.3-15.8L554 330h49z" opacity=".2" p-id="1180"></path><path d="M542 330l35.7-212.7c-6.4-0.9-12.9-1.7-19.6-2.3L522 330h20z" opacity=".1" p-id="1181"></path><path d="M466 179l-9.1-62.6c-17.8 2.4-34.1 6.1-47.3 11.3L417 179h49z" fill="#FFFFFF" opacity=".8" p-id="1182"></path><path d="M429 261h49l-2.7-18h-49z" fill="#FFFFFF" opacity=".1" p-id="1183"></path><path d="M471.7 218l-5.7-39h-49l5.7 39z" fill="#FFFFFF" opacity=".6" p-id="1184"></path><path d="M422.7 218l3.6 25h49l-3.6-25z" fill="#FFFFFF" opacity=".3" p-id="1185"></path><path d="M363.8 331.9c3.7-1.8 7.3-3.6 10.9-5.3-3.7 1.6-7.4 3.3-11 5.1l0.1 0.2zM427 308.3l-5.6-39.7c-11.1 2.3-21 5-30.3 8.1 2.4 13.3 5 26.7 7.5 39.8 8.7-3.2 18-5.9 28.4-8.2z" fill="#D9E56A" opacity=".2" p-id="1186"></path><path d="M512.2 261c-13.6 0-25.9 0.3-37.2 1l2.7 39.9c10.4-0.6 21.9-0.9 34.6-0.9 11.3 0 21.6 0.2 31.2 0.7l0.7-40c-10-0.5-20.6-0.7-32-0.7z" fill="#D9E56A" opacity=".7" p-id="1187"></path><path d="M421.5 268.5l5.6 39.7c14-3 31.2-5.1 51-6.3l-3.5-40c-20.8 1.3-38.1 3.6-53.1 6.6z" fill="#D9E56A" opacity=".4" p-id="1188"></path><path d="M675.3 337.1c-42-20.6-78.4-34.1-163.1-34.1-84.7 0-118.2 13.5-157.3 33-34.6 17.2-55.7 24.7-55.7 122.6 0 183.6 100.1 437 121.4 444.1 27.3 9.1 159.1 8 187.5 0 30.1-8.5 121.4-260.8 121.4-444.1 0-97.9-19.4-104.4-54.2-121.5z" fill="#03889D" p-id="1189"></path><path d="M402.9 734.6l54.1 0.4c-1.7-5.8-9.7-26.3-11.3-32h-51.9c3.2 11.7 6.3 22.4 9.1 31.6z" fill="#FFFFFF" opacity=".2" p-id="1190"></path><path d="M405.1 458.7c0-19.4 0.1-41.9 1.9-54.7l-48.8 0.1c-2 15-3 32.9-3 54.5 0 22.4 1.4 45.4 3.9 68.3h50.3c-2.8-24.3-4.3-47.2-4.3-68.2z" fill="#FFFFFF" p-id="1191"></path><path d="M422.3 608c-5.7-28.3-10.1-55.4-13-81H359c2.9 27.6 7.3 55 12.4 81h50.9z" fill="#FFFFFF" opacity=".8" p-id="1192"></path><path d="M371.4 608c3.4 17.4 7.1 34.2 10.8 50h51.4c-4.2-17-8-33.7-11.3-50h-50.9z" fill="#FFFFFF" opacity=".6" p-id="1193"></path><path d="M382.2 658c3.9 16.2 7.8 31.4 11.6 45h51.9c-4.4-15.2-8.4-30.2-12.1-45h-51.4z" fill="#FFFFFF" opacity=".4" p-id="1194"></path><path d="M470.9 734.6l23.1 0.4c-1.7-5.8-9.7-26.3-11.3-32h-20.9c3.2 11.7 6.3 22.4 9.1 31.6z" fill="#FFFFFF" opacity=".2" p-id="1195"></path><path d="M442.1 458.7c0-19.4 0.1-41.9 1.9-54.7l-17.8 0.1c-2 15-3 32.9-3 54.5 0 22.4 1.4 45.4 3.9 68.3h19.3c-2.8-24.3-4.3-47.2-4.3-68.2z" fill="#FFFFFF" opacity=".5" p-id="1196"></path><path d="M459.3 608c-5.7-28.3-10.1-55.4-13-81H427c2.9 27.6 7.3 55 12.4 81h19.9z" fill="#FFFFFF" opacity=".8" p-id="1197"></path><path d="M439.4 608c3.4 17.4 7.1 34.2 10.8 50h20.4c-4.2-17-8-33.7-11.3-50h-19.9z" fill="#FFFFFF" opacity=".6" p-id="1198"></path><path d="M450.2 658c3.9 16.2 7.8 31.4 11.6 45h20.9c-4.4-15.2-8.4-30.2-12.1-45h-20.4z" fill="#FFFFFF" opacity=".4" p-id="1199"></path><path d="M518 509.5c-38.4 61-39.9 134.7-10.5 195-1-38.2 8.9-77.2 30.8-112 41.9-66.6 116.5-100.2 189.8-93 0.9-13.9 1.4-27.6 1.4-41 0-15.1-0.5-27.9-1.4-39.1-79.5-16-164.3 17.4-210.1 90.1z" fill="#D15AA3" p-id="1200"></path><path d="M675.3 337.1c-7.9-3.9-15.7-7.5-23.6-10.9 10 15.6 14.8 46.6 14.8 116.4 0 150.3-61.8 340.2-96.4 404.3h55.7c18.7-41.3 38.8-100 54.7-160.8 16.4-62.7 36-155.8 36-243.5 0-33.4-1-58.6-3.2-78.6-9.1-13.4-21.9-19-38-26.9z" opacity=".2" p-id="1201"></path><path d="M619.5 442.7c0 66.5-12.8 151.2-36 238.5-17.5 65.7-40.1 129-59 165.8h33.4c41-87.8 91.6-268.1 91.6-404.3 0-55.9-2.5-95.1-13.2-122.4-1.6-0.6-3.2-1.1-4.8-1.7-12-4-25-7.4-40-9.9 21.5 15.2 28 48.6 28 134z" opacity=".1" p-id="1202"></path><path d="M420.6 902.8c27.3 9.1 159.1 8 187.5 0 8.3-2.3 21.2-23.1 35.5-55.8h-255c14.1 33 26.1 53.8 32 55.8z" opacity=".2" p-id="1203"></path></svg>