<?xml version="1.0" standalone="no"?><!DOCTYPE svg PUBLIC "-//W3C//DTD SVG 1.1//EN" "http://www.w3.org/Graphics/SVG/1.1/DTD/svg11.dtd"><svg t="1552917299868" class="icon" style="" viewBox="0 0 1030 1024" version="1.1" xmlns="http://www.w3.org/2000/svg" p-id="9300" xmlns:xlink="http://www.w3.org/1999/xlink" width="201.171875" height="200"><defs><style type="text/css"></style></defs><path d="M409.6 569.6c-128 0-236.8-102.4-236.8-236.8 0-128 102.4-236.8 236.8-236.8S646.4 198.4 646.4 332.8c-6.4 128-108.8 236.8-236.8 236.8z m0-403.2c-96 0-172.8 76.8-172.8 172.8C236.8 435.2 313.6 512 409.6 512S582.4 435.2 582.4 339.2c-6.4-96-83.2-172.8-172.8-172.8z" fill="#8a8a8a" p-id="9301"></path><path d="M787.2 947.2c-19.2 0-32-12.8-32-32 0-192-153.6-345.6-345.6-345.6S64 723.2 64 915.2c0 19.2-12.8 32-32 32s-32-12.8-32-32c0-224 185.6-409.6 409.6-409.6s409.6 185.6 409.6 409.6c0 12.8-19.2 32-32 32zM672 563.2c-19.2 0-32-12.8-32-32s12.8-32 32-32c76.8 0 134.4-64 134.4-134.4s-64-134.4-134.4-134.4c-19.2 0-32-12.8-32-32s12.8-32 32-32c108.8 0 198.4 89.6 198.4 198.4s-83.2 198.4-198.4 198.4z" fill="#8a8a8a" p-id="9302"></path><path d="M985.6 876.8c-19.2 0-32-12.8-32-32 0-153.6-128-281.6-281.6-281.6-19.2 0-32-12.8-32-32s12.8-32 32-32c192 0 345.6 153.6 345.6 345.6 0 19.2-12.8 32-32 32z" fill="#8a8a8a" p-id="9303"></path></svg>