<?xml version="1.0" standalone="no"?><!DOCTYPE svg PUBLIC "-//W3C//DTD SVG 1.1//EN" "http://www.w3.org/Graphics/SVG/1.1/DTD/svg11.dtd"><svg t="1552917363592" class="icon" style="" viewBox="0 0 1024 1024" version="1.1" xmlns="http://www.w3.org/2000/svg" p-id="10248" xmlns:xlink="http://www.w3.org/1999/xlink" width="200" height="200"><defs><style type="text/css"></style></defs><path d="M992 363.328v592.448c0 37.44-30.464 68.224-67.52 68.224H99.52A68.288 68.288 0 0 1 32 955.776V363.328h960z m-542.656 352.256L356.48 620.8a47.488 47.488 0 0 0-32.32-12.8 48.768 48.768 0 0 0-48 49.024c0 12.16 4.48 23.936 12.48 32.96l101.76 103.68 35.136 35.904a41.6 41.6 0 0 0 59.776 0h0.064l249.536-254.592a45.76 45.76 0 0 0 0-64.256l-2.048-2.112a44.48 44.48 0 0 0-63.04 0l-202.88 206.976a12.16 12.16 0 0 1-17.536 0zM992 297.28H32V196.928c0-55.104 44.608-100.48 98.752-100.48h282.496C415.36 42.88 459.328 0 512 0c52.736 0 96.64 42.88 98.752 96.448h282.496c54.144 0 98.752 45.376 98.752 100.48v100.352z" fill="#A3A3A3" p-id="10249"></path></svg>