<?xml version="1.0" standalone="no"?><!DOCTYPE svg PUBLIC "-//W3C//DTD SVG 1.1//EN" "http://www.w3.org/Graphics/SVG/1.1/DTD/svg11.dtd"><svg t="1552916609561" class="icon" style="" viewBox="0 0 1024 1024" version="1.1" xmlns="http://www.w3.org/2000/svg" p-id="4543" xmlns:xlink="http://www.w3.org/1999/xlink" width="200" height="200"><defs><style type="text/css"></style></defs><path d="M504.1 834.8H236c-8.6 0-16.2-8.8-16.2-18.8V473.5c20.7 0 40.4-4.8 58.7-14.4 14.6-7.6 27.8-18.2 38.7-30.8 10.8 12.6 24 23.2 38.7 30.8 18.3 9.6 38.1 14.4 58.8 14.4 20.7 0 40.4-4.8 58.7-14.4 14.6-7.6 27.8-18.1 38.7-30.8 10.8 12.6 24.1 23.2 38.7 30.8 18.3 9.6 38.1 14.4 58.8 14.4 20.6 0 40.4-4.8 58.7-14.3 14.6-7.6 27.8-18.1 38.6-30.7 10.8 12.7 24.1 23.3 38.7 30.9 18.3 9.6 38.1 14.5 58.8 14.5 71.3 0 129.3-58.8 129.3-131 0-1.5-0.1-3-0.4-4.8l-32.5-219.5c-2.3-15.8-15.6-27.3-31.5-27.3H154.8c-15.9 0-29.2 11.5-31.5 27.3L90.8 338.1c-0.2 1.6-0.3 3.2-0.3 4.8 0 47.1 24.9 90.1 65.3 113.4v359.8c0 45.4 36.7 83.7 80.2 83.7h268.1c17.6 0 31.9-14.6 31.9-32.5s-14.3-32.5-31.9-32.5zM219.8 408.7c-17.2 0-33.5-6.7-45.8-18.9-12.2-12-19.2-28-19.7-45l28-189.6h659.6l28 189.6c-1.2 35.6-30.4 64.5-65.5 64.5-36.2 0-65.6-30.1-65.6-67.2 0-17.8-14.3-32.3-31.9-32.3-17.6 0-31.9 14.5-31.9 32.3 0 36.8-29.4 66.8-65.6 66.8s-65.6-30-65.6-67c0-17.8-14.3-32.3-31.9-32.3-17.6 0-31.9 14.5-31.9 32.3 0 36.9-29.4 66.9-65.6 66.9s-65.6-30-65.6-67c0-17.8-14.3-32.3-31.9-32.3-17.6 0-31.9 14.5-31.9 32.3 0.3 36.9-29.1 66.9-65.2 66.9z" p-id="4544" fill="#ffffff"></path><path d="M904.9 693c17-21.9 19.1-51.6 5.4-75.8l-10.1-17.9c-13.5-23.8-39.5-36.9-66.1-33.4l-18.7 2.4c-8.6 1.1-16.8-3.6-19.9-11.4l-7.4-22.5-0.1-0.4c-10.6-27.3-36.1-46.4-62.1-46.4h-19.4c-26 0-51.6 19.3-62.3 46.9l-6.9 19.8c-3.4 8.8-12 14.1-20.8 12.9l-17.8-2.1c-26.9-3.7-53.1 9.5-66.8 33.7l-10.1 18.1c-13.6 24.1-11.5 53.7 5.3 75.6l11.4 14.8c5.6 7.2 5.5 17.3 0 24.5L527 746.4c-16.9 21.9-19 51.6-5.3 75.7l9.6 17c13.8 24.3 41.3 37.6 68.5 33.1l17.2-2.8c9.1-1.5 17.5 3.7 21.4 13.2l5.8 11.5c9.8 24.2 32.9 38.6 61.6 38.6H726c28.9 0 51.9-14.3 61.5-38.2l6.6-14.7 0.1-0.3c3.2-8.1 11.6-12.7 20.2-11.3l18.1 3.2h0.1c27.4 4.3 54-8.5 67.8-32.8l9.7-16.8c13.8-24.2 11.7-54-5.3-75.9l-11-14.2c-5.6-7.2-5.6-17.3 0-24.5l11.1-14.2z m-45.5 121.6c-4 7-11.3 10.6-19 9.4l-18-3.2h-0.2c-30.8-4.7-60.2 11.7-71.6 39.9l-6.6 14.8-0.1 0.3c-3 7.4-11.3 9-17.8 9h-20.2c-3.5 0-14.2 0-18.4-10.3l-5.8-11.5c-10.4-25.5-34.4-41.9-61.5-41.9-3.6 0-7.3 0.3-10.8 0.9l-17.3 2.8c-7.7 1.3-15.6-2.5-19.6-9.6l-9.6-17c-4-7-3.4-15.7 1.6-22.2l11.3-14.7c19-24.6 19-59 0.1-83.7l-11.4-14.8c-4.9-6.4-5.5-15.1-1.5-22.2l10.1-18c4-7.1 11.5-10.9 19.7-9.8l17.8 2.1c29.9 4 59.8-14.3 71.1-43.6l6.9-19.5c3.3-8.5 11.3-15.3 17.8-15.3h19.4c6.4 0 14.4 6.6 17.5 14.5l7.4 22.2 0.1 0.3c11.1 28.9 40.1 46.4 70.4 42.5l18.7-2.4c7.6-1 15.1 2.8 18.9 9.6l9.8 17.5 0.2 0.3c4 7.4 3.4 16.1-1.4 22.3l-11 14.3c-19.1 24.7-19.1 59.2 0 83.9l11 14.2c5 6.4 5.6 15.1 1.5 22.1l-9.5 16.8z" p-id="4545" fill="#ffffff"></path><path d="M716 628.3c-48 0-87.1 39.7-87.1 88.5s39.1 88.5 87.1 88.5c48 0 87.1-39.7 87.1-88.5S764 628.3 716 628.3z m39.6 88.5c0 22.3-17.8 40.5-39.6 40.5s-39.6-18.1-39.6-40.5c0-22.3 17.8-40.5 39.6-40.5s39.6 18.2 39.6 40.5z" p-id="4546" fill="#ffffff"></path></svg>