<?xml version="1.0" standalone="no"?><!DOCTYPE svg PUBLIC "-//W3C//DTD SVG 1.1//EN" "http://www.w3.org/Graphics/SVG/1.1/DTD/svg11.dtd"><svg t="1552917027224" class="icon" style="" viewBox="0 0 1024 1024" version="1.1" xmlns="http://www.w3.org/2000/svg" p-id="6843" xmlns:xlink="http://www.w3.org/1999/xlink" width="200" height="200"><defs><style type="text/css"></style></defs><path d="M232.736174 1023.884301H115.439989A115.944658 115.944658 0 0 1 0.02775 907.652955V494.638506a115.944658 115.944658 0 0 1 115.412239-116.231346h195.070437c11.918013-2.170635 60.695861-38.375184 127.862671-132.982093 17.87702-25.412808 17.87702-25.412808 17.87702-82.709374 0-91.350957 61.228281-162.715693 139.801163-162.715693 74.784509 0 150.633858 47.569665 150.633858 154.606529a1452.707524 1452.707524 0 0 1-20.580074 185.957867l108.367914-1.617737a188.394711 188.394711 0 0 1 166.340244 93.521592 162.203751 162.203751 0 0 1 2.621143 162.183273 162.695215 162.695215 0 0 1-10.832695 18.429918c-14.088648 23.795071-39.521934 28.115863-38.436617 51.358036 0.552898 5.406109 1.085317 10.812218 1.617737 16.750748a80.35444 80.35444 0 0 1 1.085317 11.344638v0.532419c5.426587 40.545818 35.733562 96.245124-7.617699 148.668001a89.671787 89.671787 0 0 0-24.388924 45.951927 76.176992 76.176992 0 0 1-7.044324 22.709754v0.53242a190.44248 190.44248 0 0 1-180.428891 110.272339H422.666712a50.579884 50.579884 0 0 1-50.395585-50.272719c0-27.562965 22.750709-27.010068 50.395585-27.010068h314.803467c41.713046 0 94.791209-40.566296 112.135809-74.620688 0-0.53242 0.53242-1.617737 0.53242-2.170634a118.504369 118.504369 0 0 1 34.15678-75.93126c15.173965-18.921382 1.638215-51.194215-3.235474-85.719594-1.617737-10.238843-2.703055-21.092017-3.788372-31.351337l-0.53242-3.788372c-3.255952-55.146408 37.310344-83.753736 54.122524-111.849121 3.255952-4.873689-2.703055 4.873689 0 0v-23.283129c10.238843-18.429917-5.344676-55.719784-17.262689-76.8118a88.85268 88.85268 0 0 0-79.146257-42.695976c-44.436579 0-102.941328 1.085317-164.169608 2.703055H667.600315c-15.173965 1.085317-7.064802-5.938529-17.365078-17.836065-9.747379-10.812218-13.53575-2.047769-11.918013-17.283167 0-1.617737 12.286612-28.832582 13.310496-34.218213 22.750709-133.534991 41.160149-169.104731 39.214768-196.073844-5.262765-72.777696-52.730042-84.859531-96.961843-76.791322-60.491085 11.05795-62.825541 51.931412-62.825541 84.900486 0 61.637835 0 89.73322-36.306937 141.644154-81.275936 119.46682-151.698698 155.118472-208.032812 155.118472h-11.938491l4.505091 519.477939A51.644724 51.644724 0 0 1 224.381278 1023.884301h8.354896zM92.177337 456.242845a14.682501 14.682501 0 0 0-14.621067 15.13301v458.474912a15.010144 15.010144 0 0 0 14.621067 15.13301h128.907034V456.242845H92.177337z" fill="#CCCCCC" p-id="6844"></path></svg>