<?xml version="1.0" standalone="no"?><!DOCTYPE svg PUBLIC "-//W3C//DTD SVG 1.1//EN" "http://www.w3.org/Graphics/SVG/1.1/DTD/svg11.dtd"><svg t="1552916752810" class="icon" style="" viewBox="0 0 1290 1024" version="1.1" xmlns="http://www.w3.org/2000/svg" p-id="4729" xmlns:xlink="http://www.w3.org/1999/xlink" width="251.953125" height="200"><defs><style type="text/css"></style></defs><path d="M502.560021 1024h-28.795331a51.206791 51.206791 0 0 1-30.153601-10.0512l-271.654066-203.74055a50.256002 50.256002 0 0 1-19.966573-40.068974v-17.114206a49.712694 49.712694 0 0 1 21.732325-40.74811l81.49622-55.553257a50.256002 50.256002 0 0 1 65.87611 8.149622L541.814034 915.474201a49.576867 49.576867 0 0 1 12.496087 36.129991l-1.629925 25.263828A50.120175 50.120175 0 0 1 502.560021 1024z m-18.472476-64.382014z m-4.618119-3.531502h6.248043v-1.222444L279.532033 721.105717l-58.948932 40.74811z m179.155856 44.82292a49.984348 49.984348 0 0 1-49.984348-53.108369l2.580713-35.994164-311.451386-353.150285-178.748375 122.244329a49.033559 49.033559 0 0 1-28.252023 8.828757H50.120175A50.120175 50.120175 0 0 1 0 640.424459v-422.422071a50.120175 50.120175 0 0 1 50.120175-49.984348h213.927577a50.120175 50.120175 0 0 1 50.120175 49.984348v152.533757h184.860591l144.927444-70.358403a50.256002 50.256002 0 0 1 59.356414 11.816952L1064.883937 720.562409a49.984348 49.984348 0 0 1-13.582703 77.285581L682.53084 995.068842a49.848521 49.848521 0 0 1-23.633904 5.840562zM302.486802 485.445815A49.984348 49.984348 0 0 1 339.567582 502.560021l327.343149 369.85701a49.576867 49.576867 0 0 1 12.224433 36.129991l-0.679135 11.545298 320.551797-171.413715L661.47765 366.732988l-135.827033 66.147765a51.206791 51.206791 0 0 1-22.00398 5.025601H296.238758a49.984348 49.984348 0 0 1-49.984348-49.984348V235.931556H67.913516v386.699562h19.151612l187.169651-128.356546a49.305213 49.305213 0 0 1 28.252023-8.828757z m860.328425 238.376443A49.984348 49.984348 0 0 1 1125.326966 706.30057L691.495424 217.323252l-194.504311 95.078923a51.070964 51.070964 0 0 1-21.868152 5.025601h-56.639873a49.984348 49.984348 0 0 1-33.005969-87.608437L632.13901 12.36026a50.256002 50.256002 0 0 1 51.478446-8.828757l413.457488 164.486537h143.161692A50.120175 50.120175 0 0 1 1290.356811 218.002388v409.246849a49.984348 49.984348 0 0 1-24.313039 42.921343l-77.421408 46.452845a49.44104 49.44104 0 0 1-25.807137 7.198833zM695.841889 144.791617A49.848521 49.848521 0 0 1 733.465977 161.634169l433.01658 488.977318L1222.443295 617.198037V235.931556h-128.899854a50.256002 50.256002 0 0 1-18.472477-3.531503L668.676482 70.765884 466.022549 248.291816h4.889774l203.740549-98.610426a50.79931 50.79931 0 0 1 21.189017-4.889773zM467.244993 250.057567zM1100.198965 169.240483z" fill="#dbdbdb" p-id="4730"></path></svg>