<?xml version="1.0" standalone="no"?><!DOCTYPE svg PUBLIC "-//W3C//DTD SVG 1.1//EN" "http://www.w3.org/Graphics/SVG/1.1/DTD/svg11.dtd"><svg t="1552917169892" class="icon" style="" viewBox="0 0 1024 1024" version="1.1" xmlns="http://www.w3.org/2000/svg" p-id="8314" xmlns:xlink="http://www.w3.org/1999/xlink" width="200" height="200"><defs><style type="text/css"></style></defs><path d="M14 850.6c0 18.1 14.7 32.8 32.8 32.8 18.1 0 32.8-14.7 32.8-32.8 0-134.4 101.4-244 231.7-259.5l27.8 55.8-29.5 237h65.5l-29.5-237 27.6-55.5c27 3.4 53.1 9.5 77 20.3 5.1-21.9 12.4-42.7 21.7-62.6-101.4-43.6-217.9-33.2-310.1 27.5C69.6 637.3 14 740.3 14 850.6zM342.3 62.7c-108.8 0-197 88.2-197 197s88.2 197 197 197 197-88.2 197-197-88.2-197-197-197z m0 328.5c-72.7 0-131.6-58.9-131.6-131.6 0-72.7 58.9-131.6 131.6-131.6s131.6 59 131.6 131.6c0 72.7-58.9 131.6-131.6 131.6z m331.3 516M556.2 702.3c-3.6-16.7-6.8-26.6-14.6-41.2 10.4-4.2 20.9-20.3 36.5-49.5 17.2-32.3 41.2-91.2 43.8-117.8 13 8.9 46.9 20.3 58.9 21.9 7.8 1 8.3 4.2-0.5 7.8-4.7 2.1-14.6 11.5-21.4 24-12 20.9-44.8 75.1-69.3 112.1l74-7.8c12-24 24.5-52.1 27.1-60.5 17.7 10.4 38.1 18.8 47.4 21.4 9.9 3.1 9.4 5.7 2.1 8.9-8.3 3.6-18.2 12.5-27.6 27.1-30.2 47.4-67.8 104.3-93.3 138.2 27.1-4.2 62.6-7.8 100.1-10.4-5.7 12-8.3 27.1-8.3 41.2-41.2-0.5-85 4.2-135.6 14.6-1.6-16.2-5.7-28.7-13-44.3 17.2-4.2 34.4-19.3 82.4-102.7-36.6 5.5-68.4 11.3-88.7 17z m148 205.4c-34.4 2.1-110.5 17.2-144.4 33.9 0-19.8-3.7-34.9-12-57.4 42.8 0 121-10.9 167.9-26.1-9.4 18.4-12.5 37.1-11.5 49.6z m309.2-209.6l-31.3 40.1c-38.1-37-59.4-51.6-114.7-83.9-37 37-70.9 62.6-109 88.1-13.6-12.5-24-18.2-46.4-26.6 75.6-35.5 129.8-84.5 178.3-155.9h-62.6c-36.5 0-62 1-85 3.7v-45.9c25.5 2.6 65.7 4.2 107.4 4.2s85-1.6 117.3-4.2c-17.7 35.5-40.1 70.4-72.5 106.9 48.6 25.1 82 45.9 118.5 73.5zM887.2 903c51.6 0 93.3-1 121.5-4.2v45.9c-31.8-3.6-80.8-4.2-141.8-4.2s-109.5 0.5-141.3 4.2v-45.9c29.2 3.1 68.3 4.2 118.4 4.2V796.7c-39.1 0.5-70.9 2.1-93.3 4.7v-45.9c27.1 3.1 65.2 4.7 114.2 4.7s88.1-1 114.7-4.7v45.9c-22.4-2.6-53.7-4.2-92.3-4.7V903z" p-id="8315"></path></svg>